<svg width="428" height="300" viewBox="0 0 428 300" fill="none" xmlns="http://www.w3.org/2000/svg">
<path d="M221.887 118.075C221.127 116.55 219.891 115.313 218.365 114.552L14.3538 12.5475C10.4775 10.61 5.76454 12.1824 3.82757 16.0591C3.28275 17.1492 2.99954 18.3515 3 19.5703V223.581C2.99816 227.914 6.50935 231.429 10.843 231.431C12.0619 231.432 13.2641 231.148 14.3542 230.604L218.365 128.598C222.243 126.665 223.82 121.954 221.887 118.075ZM18.693 210.885V32.2656L197.312 121.575L18.693 210.885Z" fill="#FAFAFA" stroke="#FAFAFA" stroke-width="5"/>
<path d="M314.329 160.528C311.979 185.413 302.794 204.852 286.773 218.843C270.753 232.728 249.445 239.67 222.85 239.67C204.266 239.67 187.872 235.291 173.667 226.533C159.569 217.669 148.674 205.119 140.984 188.885C133.294 172.65 129.289 153.799 128.969 132.331V110.543C128.969 88.5413 132.867 69.1562 140.664 52.3879C148.461 35.6195 159.622 22.6961 174.147 13.6176C188.78 4.53921 205.655 0 224.773 0C250.513 0 271.233 6.99573 286.933 20.9872C302.634 34.9786 311.766 54.7376 314.329 80.264H273.957C272.034 63.4956 267.121 51.4266 259.218 44.0571C251.421 36.5807 239.939 32.8425 224.773 32.8425C207.15 32.8425 193.586 39.3042 184.08 52.2276C174.681 65.0442 169.875 83.8953 169.662 108.781V129.448C169.662 154.654 174.147 173.879 183.119 187.122C192.197 200.366 205.441 206.988 222.85 206.988C238.764 206.988 250.727 203.41 258.737 196.254C266.747 189.098 271.821 177.19 273.957 160.528H314.329Z" fill="#8C3AEE"/>
<path d="M384.248 225.046H427.733V250.45H384.248V300H357.242V250.45H313.528V225.046H357.242V178.7H384.248V225.046Z" fill="#BB86FC"/>
</svg>
