<svg width="130" height="136" viewBox="0 0 130 136" fill="none" xmlns="http://www.w3.org/2000/svg">
<path d="M2.64801 80.528H14.744C14.456 81.68 14.168 82.976 14.168 84.272C14.168 91.904 20.36 98.24 28.136 98.24C35.912 98.24 42.104 92.048 42.104 84.272C42.104 76.64 35.912 70.304 28.136 70.304C22.808 70.304 18.2 73.328 15.896 77.648H4.08801V3.488H126.056V77.648H115.256C113.528 71.888 108.2 67.712 101.864 67.712C94.232 67.712 87.896 73.904 87.896 81.68C87.896 89.456 94.088 95.648 101.864 95.648C109.64 95.648 115.832 89.456 115.832 81.68C115.832 81.248 115.832 80.96 115.832 80.672H127.496C128.36 80.672 128.936 80.096 128.936 79.232V2.048C128.936 1.184 128.36 0.608002 127.496 0.608002H2.64801C1.78401 0.608002 1.20801 1.184 1.20801 2.048V79.088C1.20801 79.808 1.78401 80.528 2.64801 80.528ZM28.136 73.184C34.184 73.184 39.224 78.08 39.224 84.272C39.224 90.32 34.328 95.36 28.136 95.36C21.944 95.36 17.048 90.464 17.048 84.272C17.048 78.08 22.088 73.184 28.136 73.184ZM101.864 92.624C95.816 92.624 90.776 87.728 90.776 81.536C90.776 75.488 95.672 70.448 101.864 70.448C108.056 70.448 112.952 75.344 112.952 81.536C112.952 87.728 107.912 92.624 101.864 92.624Z" fill="#7159C1"/>
<path d="M65.0001 94.928C74.3601 94.928 81.9921 87.296 81.9921 77.936C81.9921 68.576 74.3601 60.944 65.0001 60.944C55.6401 60.944 48.0081 68.576 48.0081 77.936C48.0081 87.44 55.6401 94.928 65.0001 94.928ZM65.0001 63.968C72.7761 63.968 79.1121 70.304 79.1121 78.08C79.1121 85.856 72.7761 92.192 65.0001 92.192C57.2241 92.192 50.8881 85.856 50.8881 78.08C50.8881 70.304 57.2241 63.968 65.0001 63.968Z" fill="#7159C1"/>
<path d="M128.936 118.112C128.792 107.168 116.696 98.384 101.864 98.384C94.952 98.384 88.616 100.4 83.864 103.568C78.536 100.832 72.056 99.248 65 99.248C56.936 99.248 49.592 101.408 43.976 104.864C39.512 102.56 34.04 101.12 28.136 101.12C13.304 100.976 1.20802 109.76 1.06402 120.704C0.920018 121.28 0.776017 122.864 1.92802 124.448C4.80802 128.624 13.592 130.64 27.992 130.64C30.728 130.64 33.32 130.496 35.768 130.352C40.952 133.664 50.744 135.248 64.856 135.248C82.424 135.248 93.08 132.8 96.824 127.904C98.408 127.904 99.992 128.048 101.72 128.048C116.12 128.048 124.904 125.888 127.784 121.856C129.224 120.272 129.08 118.688 128.936 118.112ZM4.52002 123.008C3.80002 122.144 3.94402 121.424 3.94402 121.424C3.94402 121.28 4.08802 121.136 4.08802 120.992C4.08802 111.632 14.888 103.856 28.28 103.856C33.032 103.856 37.64 104.864 41.384 106.592C35.624 110.912 32.024 116.816 32.024 123.44C31.88 124.16 31.736 125.888 33.032 127.76C31.592 127.76 30.008 127.904 28.28 127.904C10.856 127.76 5.81602 124.736 4.52002 123.008ZM65 132.512C43.4 132.512 37.064 128.624 35.336 126.32C34.328 125.024 34.616 124.16 34.616 124.16C34.616 124.016 34.76 123.872 34.76 123.728C34.76 111.92 48.296 102.128 65 102.128C81.704 102.128 95.24 111.776 95.24 123.728C95.24 123.872 95.24 124.016 95.24 124.16C95.24 124.16 95.528 125.168 94.52 126.464C92.936 128.624 86.6 132.512 65 132.512ZM125.48 120.272C124.04 122.144 119.144 125.168 101.864 125.168C100.568 125.168 99.416 125.168 98.264 125.168C98.408 124.448 98.264 123.728 98.264 123.44C98.12 116.096 93.656 109.616 86.744 105.152C90.92 102.704 96.248 101.264 102.008 101.264C115.4 101.264 126.2 108.896 126.2 118.4C126.2 118.544 126.2 118.688 126.2 118.832C126.056 118.688 126.2 119.408 125.48 120.272Z" fill="#7159C1"/>
<path d="M52.0401 55.472C52.3281 55.472 52.6161 55.328 52.9041 55.184L78.8241 37.328C79.2561 37.04 79.4001 36.608 79.4001 36.176C79.4001 35.744 79.1121 35.312 78.8241 35.024L52.9041 17.168C52.4721 16.88 51.8961 16.88 51.4641 17.024C51.0321 17.168 50.6001 17.888 50.6001 18.464V54.032C50.6001 54.608 50.8881 55.04 51.3201 55.328C51.6081 55.472 51.7521 55.472 52.0401 55.472ZM53.4801 21.2L75.3681 36.32L53.4801 51.296V21.2Z" fill="#7159C1"/>
</svg>
