<svg width="140" height="45" viewBox="0 0 140 45" fill="none" xmlns="http://www.w3.org/2000/svg">
<path d="M0.561484 26.7112H4.60426C4.50801 27.0963 4.41175 27.5294 4.41175 27.9626C4.41175 30.5134 6.48127 32.631 9.0802 32.631C11.6791 32.631 13.7486 30.5615 13.7486 27.9626C13.7486 25.4118 11.6791 23.2941 9.0802 23.2941C7.29945 23.2941 5.75934 24.3048 4.98929 25.7487H1.04277V0.962567H41.8075V25.7487H38.1978C37.6203 23.8235 35.8396 22.4278 33.7219 22.4278C31.1711 22.4278 29.0535 24.4973 29.0535 27.0963C29.0535 29.6952 31.123 31.7647 33.7219 31.7647C36.3208 31.7647 38.3904 29.6952 38.3904 27.0963C38.3904 26.9519 38.3904 26.8556 38.3904 26.7594H42.2888C42.5775 26.7594 42.77 26.5668 42.77 26.2781V0.481283C42.77 0.192513 42.5775 0 42.2888 0H0.561484C0.272714 0 0.0802002 0.192513 0.0802002 0.481283V26.2299C0.0802002 26.4706 0.272714 26.7112 0.561484 26.7112ZM9.0802 24.2567C11.1016 24.2567 12.7861 25.893 12.7861 27.9626C12.7861 29.984 11.1497 31.6684 9.0802 31.6684C7.01068 31.6684 5.37432 30.0321 5.37432 27.9626C5.37432 25.893 7.05881 24.2567 9.0802 24.2567ZM33.7219 30.754C31.7005 30.754 30.016 29.1176 30.016 27.0481C30.016 25.0267 31.6524 23.3422 33.7219 23.3422C35.7914 23.3422 37.4278 24.9786 37.4278 27.0481C37.4278 29.1176 35.7433 30.754 33.7219 30.754Z" fill="#BB86FC"/>
<path d="M21.401 31.5241C24.5293 31.5241 27.0802 28.9733 27.0802 25.8449C27.0802 22.7166 24.5293 20.1658 21.401 20.1658C18.2727 20.1658 15.7219 22.7166 15.7219 25.8449C15.7219 29.0214 18.2727 31.5241 21.401 31.5241ZM21.401 21.1765C23.9999 21.1765 26.1176 23.2941 26.1176 25.893C26.1176 28.492 23.9999 30.6096 21.401 30.6096C18.8021 30.6096 16.6844 28.492 16.6844 25.893C16.6844 23.2941 18.8021 21.1765 21.401 21.1765Z" fill="#BB86FC"/>
<path d="M42.7701 39.2728C42.7219 35.615 38.6791 32.6792 33.7219 32.6792C31.4118 32.6792 29.2941 33.353 27.7059 34.4118C25.9251 33.4974 23.7594 32.968 21.4011 32.968C18.7059 32.968 16.2513 33.6899 14.3743 34.845C12.8824 34.0749 11.0535 33.5936 9.08021 33.5936C4.12299 33.5455 0.0802139 36.4813 0.0320856 40.1391C-0.0160428 40.3316 -0.0641711 40.861 0.320856 41.3904C1.28342 42.7862 4.21925 43.46 9.03208 43.46C9.94652 43.46 10.8128 43.4118 11.631 43.3637C13.3636 44.4707 16.6364 45.0001 21.3529 45.0001C27.2246 45.0001 30.7861 44.1819 32.0374 42.5455C32.5668 42.5455 33.0963 42.5936 33.6738 42.5936C38.4866 42.5936 41.4225 41.8717 42.385 40.5241C42.8663 39.9947 42.8182 39.4653 42.7701 39.2728ZM1.18717 40.9091C0.946524 40.6204 0.994652 40.3797 0.994652 40.3797C0.994652 40.3316 1.04278 40.2835 1.04278 40.2354C1.04278 37.107 4.65241 34.5081 9.12834 34.5081C10.7166 34.5081 12.2567 34.845 13.508 35.4225C11.5829 36.8664 10.3797 38.8396 10.3797 41.0535C10.3315 41.2942 10.2834 41.8717 10.7166 42.4974C10.2353 42.4974 9.70588 42.5455 9.12834 42.5455C3.30481 42.4974 1.62032 41.4867 1.18717 40.9091ZM21.4011 44.0856C14.1818 44.0856 12.0642 42.7862 11.4866 42.0161C11.1497 41.5829 11.246 41.2942 11.246 41.2942C11.246 41.246 11.2941 41.1979 11.2941 41.1498C11.2941 37.2033 15.8182 33.9305 21.4011 33.9305C26.984 33.9305 31.508 37.1551 31.508 41.1498C31.508 41.1979 31.508 41.246 31.508 41.2942C31.508 41.2942 31.6043 41.6311 31.2674 42.0642C30.738 42.7862 28.6203 44.0856 21.4011 44.0856ZM41.615 39.9947C41.1337 40.6204 39.4973 41.6311 33.7219 41.6311C33.2888 41.6311 32.9037 41.6311 32.5187 41.6311C32.5668 41.3904 32.5187 41.1498 32.5187 41.0535C32.4706 38.599 30.9786 36.4332 28.6684 34.9412C30.0642 34.1231 31.8449 33.6418 33.77 33.6418C38.246 33.6418 41.8556 36.1926 41.8556 39.369C41.8556 39.4172 41.8556 39.4653 41.8556 39.5134C41.8075 39.4653 41.8556 39.7059 41.615 39.9947Z" fill="#BB86FC"/>
<path d="M17.0695 18.3368C17.1658 18.3368 17.2621 18.2887 17.3583 18.2406L26.0214 12.2727C26.1658 12.1764 26.2139 12.032 26.2139 11.8876C26.2139 11.7433 26.1177 11.5989 26.0214 11.5026L17.3583 5.5347C17.2139 5.43844 17.0214 5.43844 16.877 5.48657C16.7326 5.5347 16.5883 5.77534 16.5883 5.96785V17.8556C16.5883 18.0481 16.6845 18.1925 16.8289 18.2887C16.9252 18.3368 16.9733 18.3368 17.0695 18.3368ZM17.5508 6.88229L24.8663 11.9358L17.5508 16.9411V6.88229Z" fill="#BB86FC"/>
<path d="M65.5156 27.8438C65.2344 30.25 64.3438 32.1094 62.8438 33.4219C61.3542 34.724 59.3698 35.375 56.8906 35.375C54.2031 35.375 52.0469 34.4115 50.4219 32.4844C48.8073 30.5573 48 27.9792 48 24.75V22.5625C48 20.4479 48.375 18.5885 49.125 16.9844C49.8854 15.3802 50.9583 14.151 52.3438 13.2969C53.7292 12.4323 55.3333 12 57.1562 12C59.5729 12 61.5104 12.6771 62.9688 14.0312C64.4271 15.375 65.276 17.2396 65.5156 19.625H62.5C62.2396 17.8125 61.6719 16.5 60.7969 15.6875C59.9323 14.875 58.7188 14.4688 57.1562 14.4688C55.2396 14.4688 53.7344 15.1771 52.6406 16.5938C51.5573 18.0104 51.0156 20.026 51.0156 22.6406V24.8438C51.0156 27.3125 51.5312 29.276 52.5625 30.7344C53.5938 32.1927 55.0365 32.9219 56.8906 32.9219C58.5573 32.9219 59.8333 32.5469 60.7188 31.7969C61.6146 31.0365 62.2083 29.7188 62.5 27.8438H65.5156Z" fill="#BB86FC"/>
<path d="M71.0475 35.0625H69.0602V23.4395H71.0475V35.0625ZM68.899 20.3564C68.899 20.0342 68.9957 19.762 69.1891 19.54C69.3896 19.318 69.6832 19.207 70.0699 19.207C70.4566 19.207 70.7503 19.318 70.9508 19.54C71.1513 19.762 71.2516 20.0342 71.2516 20.3564C71.2516 20.6787 71.1513 20.9473 70.9508 21.1621C70.7503 21.377 70.4566 21.4844 70.0699 21.4844C69.6832 21.4844 69.3896 21.377 69.1891 21.1621C68.9957 20.9473 68.899 20.6787 68.899 20.3564Z" fill="#BB86FC"/>
<path d="M76.5178 23.4395L76.5822 24.9004C77.4702 23.7832 78.6304 23.2246 80.0627 23.2246C82.5191 23.2246 83.758 24.6104 83.7795 27.3818V35.0625H81.7922V27.3711C81.785 26.5332 81.5917 25.9137 81.2121 25.5127C80.8397 25.1117 80.2561 24.9111 79.4611 24.9111C78.8166 24.9111 78.2508 25.083 77.7639 25.4268C77.2769 25.7705 76.8973 26.2217 76.6252 26.7803V35.0625H74.6379V23.4395H76.5178Z" fill="#BB86FC"/>
<path d="M91.9998 35.2773C90.4243 35.2773 89.1424 34.7617 88.1541 33.7305C87.1658 32.6921 86.6717 31.3063 86.6717 29.5732V29.208C86.6717 28.055 86.8901 27.0273 87.327 26.125C87.771 25.2155 88.3869 24.5065 89.1746 23.998C89.9695 23.4824 90.8289 23.2246 91.7527 23.2246C93.2638 23.2246 94.4383 23.7223 95.2762 24.7178C96.1141 25.7132 96.533 27.1383 96.533 28.9932V29.8203H88.659C88.6876 30.9661 89.0206 31.8936 89.658 32.6025C90.3025 33.3044 91.1189 33.6553 92.1072 33.6553C92.8091 33.6553 93.4035 33.512 93.8904 33.2256C94.3774 32.9391 94.8035 32.5596 95.1688 32.0869L96.3826 33.0322C95.4087 34.529 93.9477 35.2773 91.9998 35.2773ZM91.7527 24.8574C90.9507 24.8574 90.2775 25.151 89.7332 25.7383C89.1889 26.3184 88.8523 27.1348 88.7234 28.1875H94.5457V28.0371C94.4884 27.0273 94.2163 26.2467 93.7293 25.6953C93.2423 25.1367 92.5835 24.8574 91.7527 24.8574Z" fill="#BB86FC"/>
<path d="M109.061 29.3799C109.061 31.1488 108.656 32.5739 107.847 33.6553C107.038 34.7367 105.942 35.2773 104.56 35.2773C103.149 35.2773 102.039 34.8298 101.23 33.9346V39.5312H99.2426V23.4395H101.058L101.155 24.7285C101.964 23.7259 103.088 23.2246 104.528 23.2246C105.924 23.2246 107.027 23.751 107.836 24.8037C108.653 25.8564 109.061 27.321 109.061 29.1973V29.3799ZM107.074 29.1543C107.074 27.8438 106.794 26.8089 106.236 26.0498C105.677 25.2907 104.911 24.9111 103.937 24.9111C102.734 24.9111 101.831 25.4447 101.23 26.5117V32.0654C101.824 33.1253 102.734 33.6553 103.958 33.6553C104.911 33.6553 105.666 33.2793 106.225 32.5273C106.791 31.7682 107.074 30.6439 107.074 29.1543Z" fill="#BB86FC"/>
<path d="M114.155 35.0625H112.168V18.5625H114.155V35.0625Z" fill="#BB86FC"/>
<path d="M124.921 33.9131C124.148 34.8226 123.013 35.2773 121.516 35.2773C120.277 35.2773 119.332 34.9193 118.68 34.2031C118.036 33.4798 117.71 32.4128 117.703 31.002V23.4395H119.69V30.9482C119.69 32.71 120.406 33.5908 121.838 33.5908C123.357 33.5908 124.366 33.0251 124.868 31.8936V23.4395H126.855V35.0625H124.964L124.921 33.9131Z" fill="#BB86FC"/>
<path d="M137.052 31.9795C137.052 31.4424 136.848 31.027 136.44 30.7334C136.039 30.4326 135.333 30.1748 134.323 29.96C133.321 29.7451 132.522 29.4873 131.928 29.1865C131.341 28.8857 130.904 28.5277 130.617 28.1123C130.338 27.6969 130.198 27.2028 130.198 26.6299C130.198 25.6774 130.599 24.8717 131.402 24.2129C132.211 23.554 133.242 23.2246 134.495 23.2246C135.813 23.2246 136.88 23.5648 137.696 24.2451C138.52 24.9255 138.932 25.7956 138.932 26.8555H136.934C136.934 26.3112 136.701 25.8421 136.236 25.4482C135.777 25.0544 135.197 24.8574 134.495 24.8574C133.772 24.8574 133.206 25.015 132.798 25.3301C132.39 25.6452 132.186 26.057 132.186 26.5654C132.186 27.0452 132.376 27.4069 132.755 27.6504C133.135 27.8939 133.819 28.1266 134.807 28.3486C135.802 28.5706 136.608 28.8356 137.224 29.1436C137.84 29.4515 138.294 29.8239 138.588 30.2607C138.889 30.6904 139.039 31.2168 139.039 31.8398C139.039 32.8783 138.624 33.7126 137.793 34.3428C136.962 34.9658 135.885 35.2773 134.56 35.2773C133.629 35.2773 132.805 35.1126 132.089 34.7832C131.373 34.4538 130.811 33.9954 130.403 33.4082C130.002 32.8138 129.801 32.1729 129.801 31.4854H131.788C131.824 32.1514 132.089 32.6813 132.583 33.0752C133.085 33.4619 133.743 33.6553 134.56 33.6553C135.312 33.6553 135.913 33.5049 136.364 33.2041C136.823 32.8962 137.052 32.488 137.052 31.9795Z" fill="#BB86FC"/>
</svg>
