<svg width="300" height="300" viewBox="0 0 300 300" fill="none" xmlns="http://www.w3.org/2000/svg">
<path d="M0 150C0 67.1573 67.1573 0 150 0V0C232.843 0 300 67.1573 300 150V150C300 232.843 232.843 300 150 300V300C67.1573 300 0 232.843 0 150V150Z" fill="#292929"/>
<path d="M153.74 132.973C153.334 132.16 152.675 131.5 151.861 131.095L43.0553 76.692C40.988 75.6587 38.4744 76.4973 37.4414 78.5649C37.1508 79.1463 36.9998 79.7875 37 80.4375V189.243C36.999 191.554 38.8717 193.429 41.183 193.43C41.833 193.43 42.4742 193.279 43.0556 192.989L151.861 138.586C153.93 137.555 154.771 135.042 153.74 132.973ZM45.3696 182.472V87.2084L140.633 134.84L45.3696 182.472Z" fill="#FAFAFA" stroke="#FAFAFA" stroke-width="5"/>
<path d="M203.042 155.615C201.789 168.887 196.89 179.254 188.346 186.717C179.801 194.122 168.437 197.824 154.254 197.824C144.342 197.824 135.598 195.489 128.022 190.818C120.503 186.09 114.693 179.397 110.592 170.738C106.49 162.08 104.354 152.026 104.183 140.577V128.956C104.183 117.222 106.262 106.883 110.421 97.9402C114.579 88.9971 120.532 82.1046 128.279 77.2627C136.082 72.4209 145.083 70 155.279 70C169.007 70 180.058 73.7311 188.431 81.1932C196.805 88.6553 201.675 99.1934 203.042 112.807H181.51C180.485 103.864 177.865 97.4275 173.649 93.4971C169.491 89.5097 163.368 87.516 155.279 87.516C145.88 87.516 138.646 90.9623 133.576 97.8547C128.563 104.69 126 114.744 125.886 128.016V139.039C125.886 152.482 128.279 162.735 133.063 169.799C137.905 176.862 144.969 180.394 154.254 180.394C162.741 180.394 169.121 178.485 173.393 174.669C177.665 170.852 180.371 164.501 181.51 155.615H203.042Z" fill="#8C3AEE"/>
<path d="M240.332 190.024H263.524V203.573H240.332V230H225.929V203.573H202.615V190.024H225.929V165.307H240.332V190.024Z" fill="#BB86FC"/>
</svg>
